<?xml version="1.0" encoding="UTF-8"?>
<svg version="1.1" xmlns="http://www.w3.org/2000/svg" width="180" height="180">
<path d="M0 0 C1.34764496 0.70236377 2.6830731 1.42910343 4 2.1875 C5.010625 2.72375 6.02125 3.26 7.0625 3.8125 C8.0215625 4.493125 8.0215625 4.493125 9 5.1875 C9 5.8475 9 6.5075 9 7.1875 C9.66 7.1875 10.32 7.1875 11 7.1875 C17.97130165 15.58881224 19.63347578 23.51710904 19.42578125 34.3828125 C18.61589797 41.61975114 15.82970257 48.65859116 11 54.1875 C10.34 54.1875 9.68 54.1875 9 54.1875 C8.77570313 54.77402344 8.55140625 55.36054687 8.3203125 55.96484375 C4.50247118 62.39191981 -5.03768596 66.18140951 -12 68.1875 C-15.5 68.375 -15.5 68.375 -18 68.1875 C-17.835 67.548125 -17.67 66.90875 -17.5 66.25 C-16.40835879 59.56369756 -16.17749675 54.06827423 -20 48.1875 C-20.99 47.6925 -20.99 47.6925 -22 47.1875 C-22.226875 47.765 -22.45375 48.3425 -22.6875 48.9375 C-25.00207509 52.90534302 -28.76482659 55.52622828 -33 57.1875 C-40.61036679 57.96995113 -49.01086856 58.76234328 -55.328125 53.80078125 C-55.87984375 53.26839844 -56.4315625 52.73601562 -57 52.1875 C-57.95132813 51.28064453 -57.95132813 51.28064453 -58.921875 50.35546875 C-64.96006944 44.03033532 -67.111006 38.51560571 -67.4375 29.8125 C-67.18329841 20.65065098 -64.33990355 13.56409654 -57.953125 6.94921875 C-50.72909365 0.43314247 -44.2560057 -0.42104171 -34.76953125 -0.0859375 C-31 0.1875 -31 0.1875 -27.703125 0.80078125 C-24.47753093 1.2622463 -23.03349215 0.27490977 -20.17578125 -1.09375 C-13.71164294 -3.22912064 -6.19366383 -2.69289732 0 0 Z M-34 26.1875 C-36.66784991 27.1527766 -39.19859295 27.65619866 -42 28.1875 C-40.28299391 31.4441248 -40.28299391 31.4441248 -37 32.125 C-34 33.1875 -34 33.1875 -32.875 35.125 C-32.58625 35.805625 -32.2975 36.48625 -32 37.1875 C-29.46424964 39.91830808 -27.93805541 40.19663937 -24.1875 40.75 C-19.73631879 40.61811315 -17.81293398 38.59691115 -14.7421875 35.58984375 C-11.94875576 33.3413191 -9.51694009 33.33104858 -6 33.1875 C-6 32.5275 -6 31.8675 -6 31.1875 C-7.58952324 29.99697613 -7.58952324 29.99697613 -9.625 28.875 C-12.39912144 27.23972842 -14.6948977 25.61642544 -17 23.375 C-20.35139742 20.93127272 -22.01941318 20.44246444 -26.0625 20.6875 C-29.3490959 21.53565378 -31.48673596 23.98839397 -34 26.1875 Z " fill="#51A2E3" transform="translate(114,56.8125)"/>
<path d="M0 0 C1.8871875 0.0309375 1.8871875 0.0309375 3.8125 0.0625 C3.46316406 0.70316406 3.11382812 1.34382813 2.75390625 2.00390625 C0.06673046 7.11182398 -1.8107456 11.28559915 -2.1875 17.0625 C-1.424375 16.423125 -0.66125 15.78375 0.125 15.125 C4.31116016 11.91236546 7.98528198 11.59278108 13.11328125 11.66015625 C18.74074255 12.49898189 22.97478416 15.73355702 26.44921875 20.13671875 C31.05784802 27.28075439 31.49440269 33.64916535 30.8125 42.0625 C28.68389006 50.77155553 23.40376183 59.13843828 15.8125 64.0625 C14.8225 64.0625 13.8325 64.0625 12.8125 64.0625 C12.9775 63.423125 13.1425 62.78375 13.3125 62.125 C14.5864098 54.32230249 14.08726707 49.74182354 9.8125 43.0625 C9.8125 42.0725 9.8125 41.0825 9.8125 40.0625 C9.0390625 40.12050781 8.265625 40.17851563 7.46875 40.23828125 C0.13734119 40.55585465 -4.60061033 39.98653835 -10.1875 35.0625 C-12.5 32.625 -12.5 32.625 -14.1875 30.0625 C-15.05375 28.763125 -15.05375 28.763125 -15.9375 27.4375 C-17.91274343 22.10434275 -18.30498767 16.44021696 -16.49609375 10.97265625 C-13.04394098 4.37167795 -7.5729086 -0.12414604 0 0 Z M-3.1875 22.0625 C-5.85534991 23.0277766 -8.38609295 23.53119866 -11.1875 24.0625 C-9.47049391 27.3191248 -9.47049391 27.3191248 -6.1875 28 C-3.1875 29.0625 -3.1875 29.0625 -2.0625 31 C-1.77375 31.680625 -1.485 32.36125 -1.1875 33.0625 C1.34825036 35.79330808 2.87444459 36.07163937 6.625 36.625 C11.07618121 36.49311315 12.99956602 34.47191115 16.0703125 31.46484375 C18.86374424 29.2163191 21.29555991 29.20604858 24.8125 29.0625 C24.8125 28.4025 24.8125 27.7425 24.8125 27.0625 C23.22297676 25.87197613 23.22297676 25.87197613 21.1875 24.75 C18.41337856 23.11472842 16.1176023 21.49142544 13.8125 19.25 C10.46110258 16.80627272 8.79308682 16.31746444 4.75 16.5625 C1.4634041 17.41065378 -0.67423596 19.86339397 -3.1875 22.0625 Z " fill="#2B3148" transform="translate(83.1875,60.9375)"/>
<path d="M0 0 C0 0.33 0 0.66 0 1 C-4.95 1.33 -9.9 1.66 -15 2 C-15 2.66 -15 3.32 -15 4 C-15.56847656 4.16113281 -16.13695313 4.32226562 -16.72265625 4.48828125 C-23.40858258 6.84342391 -26.16287538 10.36411174 -29.78515625 16.34375 C-31.27727852 19.11945569 -31.27727852 19.11945569 -31 23 C-31.20028463 24.54273295 -31.40920994 26.08435937 -31.625 27.625 C-32.21325259 33.04014716 -31.34907657 37.75978524 -30 43 C-29.34 43 -28.68 43 -28 43 C-27.79375 43.763125 -27.5875 44.52625 -27.375 45.3125 C-25.57929296 48.82229103 -23.56863688 49.52599781 -20 51 C-20 51.66 -20 52.32 -20 53 C-19.34 53 -18.68 53 -18 53 C-18.33 53.99 -18.66 54.98 -19 56 C-25.91541455 51.95195246 -32.10206091 46.1514906 -34.5625 38.32421875 C-36.45527396 28.26885711 -35.26089728 19.26992139 -29.4921875 10.78125 C-21.171523 0.40944494 -12.71921847 -0.75410386 0 0 Z " fill="#58C5D9" transform="translate(82,57)"/>
<path d="M0 0 C0.40089844 0.433125 0.80179687 0.86625 1.21484375 1.3125 C4.69600045 4.72261269 6.94615608 6.42238618 11.9375 6.375 C13.29409299 6.27987996 14.65015829 6.16528674 16 6 C16 6.66 16 7.32 16 8 C13.69 8.33 11.38 8.66 9 9 C10.3921875 9.061875 10.3921875 9.061875 11.8125 9.125 C15 10 15 10 16.9375 12.9375 C17.288125 13.948125 17.63875 14.95875 18 16 C17.67 16.66 17.34 17.32 17 18 C14 14.375 14 14.375 14 11 C12.83984375 11.08701172 12.83984375 11.08701172 11.65625 11.17578125 C4.26817434 11.49580928 -0.24191379 10.74195335 -6 6 C-4 4 -2 2 0 0 Z " fill="#383A53" transform="translate(79,90)"/>
<path d="M0 0 C0.99 0.33 1.98 0.66 3 1 C3 1.66 3 2.32 3 3 C3.66 3 4.32 3 5 3 C12.79635504 12.39560735 14.04170978 22.04063061 13 34 C11.98046875 36.953125 11.98046875 36.953125 11 39 C10.34 37.68 9.68 36.36 9 35 C9.495 34.505 9.495 34.505 10 34 C10.07273449 30.40418863 9.9960295 26.81856215 9.9375 23.22265625 C10 20 10 20 11 18 C10.34 18 9.68 18 9 18 C8.814375 17.030625 8.62875 16.06125 8.4375 15.0625 C7.19487447 10.55222955 4.43486767 7.44420024 1.4609375 3.91796875 C0 2 0 2 0 0 Z " fill="#5ECDDC" transform="translate(120,61)"/>
<path d="M0 0 C0 0.33 0 0.66 0 1 C-0.79664062 1.09796875 -1.59328125 1.1959375 -2.4140625 1.296875 C-8.62704273 2.17364593 -13.13766231 2.94805192 -18 7 C-18 6.01 -18 5.02 -18 4 C-17.34 4 -16.68 4 -16 4 C-16 2.68 -16 1.36 -16 0 C-16.99 -0.66 -17.98 -1.32 -19 -2 C-5.18223235 -3.70159453 -5.18223235 -3.70159453 0 0 Z " fill="#7288D2" transform="translate(88,60)"/>
<path d="M0 0 C1.70703125 1.0703125 1.70703125 1.0703125 3.70703125 3.0703125 C2.53140625 3.039375 2.53140625 3.039375 1.33203125 3.0078125 C-1.27411836 2.88347187 -1.27411836 2.88347187 -3.29296875 4.0703125 C-3.29296875 3.0803125 -3.29296875 2.0903125 -3.29296875 1.0703125 C-8.57939287 -1.15555029 -13.63746301 -1.69563001 -19.29296875 -0.9296875 C-21.9456647 0.15400712 -23.92044678 1.41986244 -26.29296875 3.0703125 C-27.28296875 2.4103125 -28.27296875 1.7503125 -29.29296875 1.0703125 C-19.87613924 -4.38025549 -9.78426536 -4.90120899 0 0 Z " fill="#7FC6DB" transform="translate(116.29296875,57.9296875)"/>
<path d="M0 0 C0.75 1.625 0.75 1.625 1 4 C-0.9375 7.25 -0.9375 7.25 -3 10 C-2.34 10 -1.68 10 -1 10 C-1 9.34 -1 8.68 -1 8 C0.65 8 2.3 8 4 8 C0.53264053 11.03393954 -3.52949826 12.9351577 -8 14 C-8.99 13.67 -9.98 13.34 -11 13 C-10.54109375 12.64808594 -10.0821875 12.29617187 -9.609375 11.93359375 C-5.16127195 8.35455285 -2.55263762 5.10527523 0 0 Z " fill="#9D99CC" transform="translate(110,111)"/>
<path d="M0 0 C0.69738281 0.00902344 1.39476563 0.01804688 2.11328125 0.02734375 C3.82566958 0.05080112 5.53788004 0.08666896 7.25 0.125 C7.25 0.455 7.25 0.785 7.25 1.125 C2.3 1.455 -2.65 1.785 -7.75 2.125 C-7.75 2.785 -7.75 3.445 -7.75 4.125 C-8.36488281 4.36734375 -8.97976562 4.6096875 -9.61328125 4.859375 C-15.60983374 7.29277068 -15.60983374 7.29277068 -19.75 12.125 C-20.41 12.125 -21.07 12.125 -21.75 12.125 C-20.34844241 8.78727007 -18.7990314 7.10750943 -15.875 5 C-15.19695313 4.50242187 -14.51890625 4.00484375 -13.8203125 3.4921875 C-13.13710938 3.04101562 -12.45390625 2.58984375 -11.75 2.125 C-11.16476563 1.73828125 -10.57953125 1.3515625 -9.9765625 0.953125 C-6.68918561 -0.26954851 -3.45424341 -0.08488689 0 0 Z " fill="#7AADDA" transform="translate(74.75,56.875)"/>
<path d="M0 0 C3.63 0 7.26 0 11 0 C9.77446495 6.12767526 8.72441958 6.48181521 4 10 C4.185625 9.236875 4.37125 8.47375 4.5625 7.6875 C5.22819173 4.91032625 5.22819173 4.91032625 4 2 C1.98491642 1.26676204 1.98491642 1.26676204 0 1 C0 0.67 0 0.34 0 0 Z " fill="#9783D9" transform="translate(82,101)"/>
<path d="M0 0 C1 2 1 2 0.44140625 3.9453125 C0.15136719 4.66460937 -0.13867188 5.38390625 -0.4375 6.125 C-0.72496094 6.84945312 -1.01242188 7.57390625 -1.30859375 8.3203125 C-1.53675781 8.87460938 -1.76492187 9.42890625 -2 10 C-1.34 10 -0.68 10 0 10 C-0.1875 11.8125 -0.1875 11.8125 -1 14 C-3.5625 15.75 -3.5625 15.75 -6 17 C-5.57025201 10.9835282 -4.47699883 4.47699883 0 0 Z " fill="#8079CF" transform="translate(86,62)"/>
<path d="M0 0 C2.625 0.375 2.625 0.375 5 1 C-0.82322176 6.97646444 -0.82322176 6.97646444 -5.125 7.0625 C-6.07375 7.041875 -7.0225 7.02125 -8 7 C-6.62141149 4.24282298 -4.62533685 3.53678254 -2 2 C-1.34 1.34 -0.68 0.68 0 0 Z " fill="#789ED9" transform="translate(117,112)"/>
<path d="M0 0 C0.66 0 1.32 0 2 0 C2.309375 1.1446875 2.309375 1.1446875 2.625 2.3125 C4.42070704 5.82229103 6.43136312 6.52599781 10 8 C10 8.66 10 9.32 10 10 C10.66 10 11.32 10 12 10 C11.67 10.99 11.34 11.98 11 13 C5.98797445 10.01665146 2.61251516 6.56048012 -1 2 C-0.67 1.34 -0.34 0.68 0 0 Z " fill="#64C9DE" transform="translate(52,100)"/>
<path d="M0 0 C0.99 0 1.98 0 3 0 C2 3 2 3 0.421875 4.1796875 C-2.9625144 5.32601294 -6.22395529 5.21165138 -9.75 5.125 C-10.44738281 5.11597656 -11.14476563 5.10695313 -11.86328125 5.09765625 C-13.57566958 5.07419888 -15.28788004 5.03833104 -17 5 C-17 4.67 -17 4.34 -17 4 C-16.10796875 3.93941406 -15.2159375 3.87882812 -14.296875 3.81640625 C-12.54117188 3.69072266 -12.54117188 3.69072266 -10.75 3.5625 C-9.00976562 3.44068359 -9.00976562 3.44068359 -7.234375 3.31640625 C-4.69022624 3.06752213 -2.44046752 2.71885058 0 2 C0 1.34 0 0.68 0 0 Z " fill="#7DB0DC" transform="translate(83,109)"/>
<path d="M0 0 C0.75 1.625 0.75 1.625 1 4 C-0.95866426 7.91732852 -2.17614834 9.65144737 -6.25 11.375 C-7.61125 11.684375 -7.61125 11.684375 -9 12 C-8.60167969 11.55269531 -8.20335938 11.10539062 -7.79296875 10.64453125 C-4.82015875 7.25220061 -2.1717806 3.98159776 0 0 Z " fill="#7776C5" transform="translate(110,111)"/>
<path d="M0 0 C0.66 0 1.32 0 2 0 C0.79157144 4.43090471 -0.51668565 6.98112756 -4 10 C-4 8.35 -4 6.7 -4 5 C-3.34 4.67 -2.68 4.34 -2 4 C-0.86649466 1.98330173 -0.86649466 1.98330173 0 0 Z " fill="#64C6DE" transform="translate(128,101)"/>
<path d="M0 0 C0.33 0.99 0.66 1.98 1 3 C0.46890625 2.83628906 -0.0621875 2.67257813 -0.609375 2.50390625 C-3.53876764 1.88643623 -6.25822936 1.90498075 -9.25 1.9375 C-10.32765625 1.94652344 -11.4053125 1.95554687 -12.515625 1.96484375 C-13.74539062 1.98224609 -13.74539062 1.98224609 -15 2 C-14.67 1.34 -14.34 0.68 -14 0 C-11.6015625 -0.44921875 -11.6015625 -0.44921875 -8.625 -0.6875 C-7.15933594 -0.81705078 -7.15933594 -0.81705078 -5.6640625 -0.94921875 C-3 -1 -3 -1 0 0 Z " fill="#6777C3" transform="translate(102,72)"/>
<path d="M0 0 C6.52307692 0.61538462 6.52307692 0.61538462 8.9375 2.5625 C9.288125 3.036875 9.63875 3.51125 10 4 C8.824375 3.9690625 8.824375 3.9690625 7.625 3.9375 C5.01885039 3.81315937 5.01885039 3.81315937 3 5 C3 4.01 3 3.02 3 2 C2.01 1.67 1.02 1.34 0 1 C0 0.67 0 0.34 0 0 Z " fill="#58CDDF" transform="translate(110,57)"/>
<path d="M0 0 C0.66 0.33 1.32 0.66 2 1 C1 3 1 3 -1.4375 4.4375 C-4.2355972 5.89664045 -4.2355972 5.89664045 -6 9 C-6.66 9 -7.32 9 -8 9 C-6.4169423 4.7257442 -3.49431596 2.73468206 0 0 Z " fill="#7EC0DE" transform="translate(61,60)"/>
<path d="M0 0 C0.66 0.33 1.32 0.66 2 1 C-0.625 5.875 -0.625 5.875 -4 7 C-4.66 6.34 -5.32 5.68 -6 5 C-4.02 3.35 -2.04 1.7 0 0 Z " fill="#413F5E" transform="translate(86,74)"/>
<path d="M0 0 C0.33 0 0.66 0 1 0 C1.125 6.75 1.125 6.75 0 9 C0.66 9.33 1.32 9.66 2 10 C0.68 10.33 -0.64 10.66 -2 11 C-1.34 7.37 -0.68 3.74 0 0 Z " fill="#5F5E69" transform="translate(98,114)"/>
</svg>
